<svg xmlns="http://www.w3.org/2000/svg" fill="none" viewBox="0 0 70 70" height="70" width="70">
<path stroke-linejoin="round" stroke-linecap="round" stroke-width="1.5" stroke="#4E7661" d="M35.2903 35L35 63.1122"></path>
<path stroke-linejoin="round" stroke-linecap="round" stroke-width="1.5" stroke="#4E7661" d="M60.1562 47.9424V22.0575C60.1562 21.6702 60.0534 21.2897 59.8582 20.9551C59.6629 20.6205 59.3824 20.3438 59.0451 20.1532L36.0764 7.17084C35.748 6.98523 35.3772 6.8877 35 6.8877C34.6228 6.8877 34.252 6.98523 33.9236 7.17084L10.9549 20.1532C10.6176 20.3438 10.3371 20.6205 10.1418 20.9551C9.94662 21.2897 9.84375 21.6702 9.84375 22.0575V47.9424C9.84375 48.3298 9.94662 48.7102 10.1418 49.0448C10.3371 49.3794 10.6176 49.6561 10.9549 49.8467L33.9236 62.8291C34.252 63.0147 34.6228 63.1122 35 63.1122C35.3772 63.1122 35.748 63.0147 36.0764 62.8291L59.0451 49.8467C59.3824 49.6561 59.6629 49.3794 59.8582 49.0448C60.0534 48.7102 60.1563 48.3298 60.1562 47.9424V47.9424Z"></path>
<path stroke-linejoin="round" stroke-linecap="round" stroke-width="1.5" stroke="#4E7661" d="M59.8566 20.9527L35.2904 35L10.1454 20.9497"></path>
</svg>
