<svg xmlns="http://www.w3.org/2000/svg" fill="none" viewBox="0 0 70 70" height="70" width="70">
<path stroke-linejoin="round" stroke-linecap="round" stroke-width="1.5" stroke="#4E7661" d="M13.125 28.4375C13.125 48.125 35 63.4375 35 63.4375C35 63.4375 56.875 48.125 56.875 28.4375C56.875 22.6359 54.5703 17.0719 50.468 12.9695C46.3656 8.86718 40.8016 6.5625 35 6.5625C29.1984 6.5625 23.6344 8.86718 19.532 12.9695C15.4297 17.0719 13.125 22.6359 13.125 28.4375Z"></path>
<path stroke-linejoin="round" stroke-linecap="round" stroke-width="1.5" stroke="#4E7661" d="M35 6.5625L35 63.4375"></path>
<path stroke-linejoin="round" stroke-linecap="round" stroke-width="1.5" stroke="#4E7661" d="M35 50.3125L13.125 28.4375"></path>
<path stroke-linejoin="round" stroke-linecap="round" stroke-width="1.5" stroke="#4E7661" d="M35 37.1875L15.7857 17.9732"></path>
<path stroke-linejoin="round" stroke-linecap="round" stroke-width="1.5" stroke="#4E7661" d="M35 24.0625L21.8742 10.9367"></path>
<path stroke-width="1.5" stroke="#4E7661" d="M35 24.0625L21.8742 10.9367"></path>
</svg>
