<svg xmlns="http://www.w3.org/2000/svg" fill="none" viewBox="0 0 70 70" height="70" width="70">
<path stroke-linejoin="round" stroke-linecap="round" stroke-width="2" stroke="#4E7661" d="M19.5735 39.375L8.75 48.125V13.125C8.75 12.5448 8.98047 11.9884 9.3907 11.5782C9.80094 11.168 10.3573 10.9375 10.9375 10.9375H45.9375C46.5177 10.9375 47.0741 11.168 47.4843 11.5782C47.8945 11.9884 48.125 12.5448 48.125 13.125V37.1875C48.125 37.7677 47.8945 38.3241 47.4843 38.7343C47.0741 39.1445 46.5177 39.375 45.9375 39.375H19.5735Z"></path>
<path stroke-linejoin="round" stroke-linecap="round" stroke-width="2" stroke="#4E7661" d="M21.875 39.375V50.3125C21.875 50.8927 22.1055 51.4491 22.5157 51.8593C22.9259 52.2695 23.4823 52.5 24.0625 52.5H50.4266L61.25 61.25V26.25C61.25 25.6698 61.0195 25.1134 60.6093 24.7032C60.1991 24.293 59.6427 24.0625 59.0625 24.0625H48.125"></path>
</svg>
